SplineFontDB: 3.2
FontName: AthelsRegular
FullName: Athels Regular
FamilyName: Athels
Weight: Regular
Copyright: Copyright (c) 2022, RandomMaerks (as known as Bao Nguyen)\n(rmforbusiness@gmail.com)\n\nFONT LICENCE\nLICENCE TYPE: PERSONAL AND COMMERCIAL\nDATE CREATED: 16 JAN 2022\nLAST MODIFIED: 16 JAN 2022\n\nDEFINITIONS\n\n"Font Software" refers to the set of files released by the Copyright Holder(s) \nunder this licence.\n\n"The Licensor" refers to RandomMaerks (as known as Bao Nguyen)\n(rmforbusiness@gmail.com).\n\n"The Licensee"refers to any person obtaining a copy of the Font Software.\n\n"Author" refers to any designer, programmer, or other people who contributed to \nthe Font Software.\n\nAGREEMENT\n\nBy obtaining this licence, you agree to the following terms and conditions:\n- Licensee may use and/or modify the Font Software for personal and \ncommercial project(s).\n- Licensee may not re-distribute the Font Software without the consent of the \nAuthor.\n- Licensee must not claim ownership of the Font Software.\n- Licensee must not re-sell the Font Software for personal monetary gains.\n\nThis licence will become null and void if any of the conditions above are not met, \nand the Licensee must destroy all copies of the Font Software.\n\nWARNING\nTHE FONT SOFTWARE IS PROVIDED "AS IS", WITHOUT WARRANTY OF ANY KIND. THE \nLICENSOR IS NOT RESPONSIBLE FOR INCIDENTAL, INDIRECT, AND CONSEQUENTIAL \nDAMAGES, WHETHER IN AN ACTION OF CONTRACT, TORT OR OTHERWISE, ARISING \nFROM, OUT OF THE USE OR INABILITY TO USE THE FONT SOFTWARE OR FROM OTHER \nDEALINGS IN THE FONT SOFTWARE. IN NO EVENT SHALL THE LICENSOR BE LIABLE FOR\nCOMPENSATION FOR ALL DAMAGES EXCEEDING THE AMOUNT PAID BY THE LICENSEE \nUNDER THIS LICENCE.
UComments: "2021-10-21: Created with FontForge (http://fontforge.org)"
Version: 1.0
ItalicAngle: 0
UnderlinePosition: -100
UnderlineWidth: 50
Ascent: 800
Descent: 200
InvalidEm: 0
LayerCount: 2
Layer: 0 0 "Back" 1
Layer: 1 0 "Fore" 0

StartChar: n
Encoding: 110 110 0
GlifName: n
Width: 640
Flags: W
HStem: 0 21G<25 161 479 615> 403 123<274.509 419.352> 497 20G<25 161>
VStem: 25 136<0 339.645 432 517> 479 136<0 341.588>
AnchorPoint: "Top AccentedMark" 326 607 basechar 0
LayerCount: 2
Fore
SplineSet
25 517 m 1xb8
 161 517 l 1xb8
 161 432 l 1
 226 491 305 526 385 526 c 0
 506 526 615 423 615 286 c 2
 615 0 l 1
 479 0 l 1
 479 267 l 2
 479 345 429 403 339 403 c 0xd8
 274 403 217 376 161 320 c 1
 161 0 l 1
 25 0 l 1
 25 517 l 1xb8
EndSplineSet
Validated: 1
EndChar

StartChar: o
Encoding: 111 111 1
GlifName: o
Width: 654
Flags: W
HStem: -14 120<245.815 414.071> 408 126<242.805 418.594>
VStem: 25 134<183.722 330.566> 495 134<185.003 339.229>
AnchorPoint: "Top AccentedMark" 331 607 basechar 0
LayerCount: 2
Fore
SplineSet
329 534 m 4
 490 534 629 416 629 253 c 4
 629 103 482 -14 331 -14 c 4
 161 -14 25 95 25 268 c 4
 25 424 172 534 329 534 c 4
337 408 m 4
 243 408 159 349 159 259 c 4
 159 167 242 106 332 106 c 4
 423 106 495 175 495 264 c 4
 495 351 421 408 337 408 c 4
EndSplineSet
Validated: 1
EndChar

StartChar: y
Encoding: 121 121 2
GlifName: y
Width: 659
Flags: W
HStem: -238 126<83.8294 227.097> 497 20G<25 181.775 483.509 634>
AnchorPoint: "Top AccentedMark" 331 607 basechar 0
LayerCount: 2
Fore
SplineSet
25 517 m 1
 174 517 l 1
 326 126 l 1
 492 517 l 1
 634 517 l 1
 380 -78 l 1
 325 -194 272 -238 200 -238 c 0
 132 -238 83 -221 30 -193 c 1
 32 -64 l 1
 78 -90 123 -112 170 -112 c 0
 218 -112 254 -80 280 0 c 1
 230 0 l 1
 25 517 l 1
EndSplineSet
Validated: 1
EndChar

StartChar: e
Encoding: 101 101 3
GlifName: e
Width: 653
Flags: W
HStem: -16 120<242.594 503.584> 221 108<160 493> 411 121<234.741 423.915>
AnchorPoint: "Top AccentedMark" 331 607 basechar 0
LayerCount: 2
Fore
SplineSet
160 329 m 1
 493 329 l 1
 474 369 404 411 330 411 c 0
 250 411 179 366 160 329 c 1
625 77 m 1
 570 10 458 -16 358 -16 c 0
 188 -16 25 93 25 266 c 0
 25 422 172 532 329 532 c 0
 492 532 628 396 628 221 c 1
 153 221 l 1
 163 139 275 104 359 104 c 0
 445 104 569 130 625 199 c 1
 625 77 l 1
EndSplineSet
Validated: 1
EndChar

StartChar: s
Encoding: 115 115 4
GlifName: s
Width: 654
Flags: W
HStem: -21 115<167.549 458.515> 211 123<181.095 463.829> 431 106<193.34 461.958>
VStem: 495 134<124.574 182.873>
LayerCount: 2
Fore
SplineSet
607 459 m 1
 607 345 l 1
 511 401 426 431 301 431 c 0
 236 431 154 402 153 379 c 0
 153 353 227 337 314 334 c 0
 446 330 629 302 629 169 c 0
 629 26 472 -21 339 -21 c 0
 213 -21 114 6 28 68 c 1
 28 185 l 1
 134 113 211 94 343 94 c 0
 412 94 495 117 495 154 c 0
 495 195 423 207 309 211 c 0
 169 215 25 255 25 364 c 0
 25 500 188 537 323 537 c 0
 436 537 513 518 607 459 c 1
EndSplineSet
Validated: 1
EndChar

StartChar: h
Encoding: 104 104 5
GlifName: h
Width: 640
Flags: W
HStem: 0 21G<25 161 479 615> 403 123<274.509 419.352> 715 20G<25 161>
VStem: 25 136<0 339.645 432 735> 479 136<0 341.588>
LayerCount: 2
Fore
SplineSet
25 735 m 5
 161 735 l 5
 161 432 l 5
 226 491 305 526 385 526 c 4
 506 526 615 423 615 286 c 6
 615 0 l 5
 479 0 l 5
 479 267 l 6
 479 345 429 403 339 403 c 4
 274 403 217 376 161 320 c 5
 161 0 l 5
 25 0 l 5
 25 735 l 5
EndSplineSet
Validated: 1
EndChar

StartChar: m
Encoding: 109 109 6
GlifName: m
Width: 1092
Flags: W
HStem: 0 21G<25 161 479 615 931 1067> 403 123<274.509 419.64 726.796 871.352> 497 20G<25 161>
VStem: 25 136<0 339.645 432 517> 479 136<0 319.484> 931 136<0 341.588>
LayerCount: 2
Fore
SplineSet
25 517 m 1xbc
 161 517 l 1xbc
 161 432 l 1
 226 491 305 526 385 526 c 0
 467 526 544 479 585 405 c 1
 655 480 745 526 837 526 c 0
 958 526 1067 423 1067 286 c 2
 1067 0 l 1
 931 0 l 1
 931 267 l 2
 931 345 881 403 791 403 c 0
 726 403 669 376 613 320 c 1
 614 309 615 298 615 286 c 2
 615 0 l 1
 479 0 l 1
 479 267 l 2
 479 345 429 403 339 403 c 0xdc
 274 403 217 376 161 320 c 1
 161 0 l 1
 25 0 l 1
 25 517 l 1xbc
EndSplineSet
Validated: 1
EndChar

StartChar: u
Encoding: 117 117 7
GlifName: u
Width: 640
Flags: W
HStem: -9 123<220.648 365.491> 0 21G<479 615> 497 20G<25 161 479 615>
VStem: 25 136<175.412 517> 479 136<0 85 177.355 517>
AnchorPoint: "Top AccentedMark" 326 607 basechar 0
LayerCount: 2
Fore
SplineSet
615 0 m 1x78
 479 0 l 1x78
 479 85 l 1
 414 26 335 -9 255 -9 c 0
 134 -9 25 94 25 231 c 2
 25 517 l 1
 161 517 l 1
 161 250 l 2
 161 172 211 114 301 114 c 0xb8
 366 114 423 141 479 197 c 1
 479 517 l 1
 615 517 l 1
 615 0 l 1x78
EndSplineSet
Validated: 1
EndChar

StartChar: a
Encoding: 97 97 8
GlifName: a
Width: 655
Flags: W
HStem: -17 108<179.514 407.09> 0 21G<501 630> 219 109<233.175 501> 424 113<196.455 454.671>
VStem: 25 134<113.454 183.72> 501 129<0 62 151.139 219 328 385.085>
AnchorPoint: "Top AccentedMark" 331 607 basechar 0
LayerCount: 2
Fore
SplineSet
47 459 m 1xbc
 134.25406124 510.836765249 230.59636036 537 334.223632812 537 c 0
 507.177312829 537 628.520289818 457.23044635 629 309 c 2
 630 0 l 1
 501 0 l 1x7c
 501 62 l 1
 447.123316628 9.88119604999 369.989077661 -17 274.313476562 -17 c 0
 128 -17 25 35.3200683932 25 143.311523438 c 0
 25 274 122 328 501 328 c 1
 501 398.336633663 435.01608546 424 340.25 424 c 0
 245.162867135 424 179.488704908 404.740058136 47 338 c 5
 47 459 l 1xbc
501 219 m 1
 222 219 159 193.628519671 159 150.359627227 c 0
 159 112.131064338 201.888049473 91 279.477539062 91 c 0xbc
 371.375030428 91 454.610810144 121.059535945 501 171 c 1
 501 219 l 1
EndSplineSet
EndChar

StartChar: i
Encoding: 105 105 9
GlifName: i
Width: 206
Flags: W
HStem: 0 21G<36 172> 497 20G<36 172> 576 135<45.1149 160.885>
VStem: 25 156<596.125 691.375> 36 136<0 517>
AnchorPoint: "Top AccentedMark" 105 747 basechar 0
LayerCount: 2
Fore
SplineSet
36 517 m 5xe8
 172 517 l 5
 172 0 l 5
 36 0 l 5
 36 517 l 5xe8
25 644 m 4xf0
 25 681 56 711 103 711 c 4
 150 711 181 681 181 644 c 4
 181 607 150 576 103 576 c 4
 56 576 25 607 25 644 c 4xf0
EndSplineSet
Validated: 1
EndChar

StartChar: l
Encoding: 108 108 10
GlifName: l
Width: 186
Flags: W
HStem: 0 21G<25 161> 715 20G<25 161>
VStem: 25 136<0 735>
LayerCount: 2
Fore
SplineSet
25 735 m 5
 161 735 l 5
 161 0 l 5
 25 0 l 5
 25 735 l 5
EndSplineSet
Validated: 1
EndChar

StartChar: c
Encoding: 99 99 11
GlifName: c
Width: 650
Flags: W
HStem: -16 120<262.772 500.339> 415 120<254.743 500.339>
VStem: 25 124<197.508 329.56>
AnchorPoint: "Bottom AccentedMark" 358 -26 basechar 0
LayerCount: 2
Fore
SplineSet
25 266 m 0
 25 439 188 535 358 535 c 0
 458 535 570 509 625 442 c 1
 625 320 l 1
 569 389 441 415 355 415 c 0
 271 415 149 367 149 266 c 0
 149 165 271 104 355 104 c 0
 441 104 569 130 625 199 c 1
 625 77 l 1
 570 10 458 -16 358 -16 c 0
 188 -16 25 93 25 266 c 0
EndSplineSet
Validated: 1
EndChar

StartChar: j
Encoding: 106 106 12
GlifName: j
Width: 414
Flags: W
HStem: -221 133<79.8241 229.31> 497 20G<244 380> 576 135<253.115 368.885>
VStem: 233 156<596.125 691.375> 244 136<-72.074 517>
LayerCount: 2
Fore
SplineSet
244 517 m 1xe8
 380 517 l 1
 380 -68 l 2
 380 -157 311 -221 192 -221 c 0
 139 -221 68 -201 25 -174 c 1
 25 -42 l 1
 74 -73 116 -88 157 -88 c 0
 206 -87 244 -75 244 -25 c 2
 244 517 l 1xe8
233 644 m 0xf0
 233 681 264 711 311 711 c 0
 358 711 389 681 389 644 c 0
 389 607 358 576 311 576 c 0
 264 576 233 607 233 644 c 0xf0
EndSplineSet
Validated: 1
EndChar

StartChar: b
Encoding: 98 98 13
GlifName: b
Width: 640
Flags: W
HStem: -9 123<274.509 420.741> 0 21G<25 161> 403 123<274.509 423.497> 715 20G<25 161>
VStem: 25 136<0 85 177.355 339.645 432 735> 479 136<173.049 345.747>
LayerCount: 2
Fore
SplineSet
25 735 m 1x7c
 161 735 l 1
 161 432 l 1
 226 491 305 526 385 526 c 0
 506 526 615 425 615 260 c 0
 615 93 506 -9 385 -9 c 0xbc
 305 -9 226 26 161 85 c 1
 161 0 l 1
 25 0 l 1
 25 735 l 1x7c
161 320 m 1
 161 197 l 1
 217 141 274 114 339 114 c 0
 429 114 479 167 479 260 c 0
 479 352 429 403 339 403 c 0
 274 403 217 376 161 320 c 1
EndSplineSet
Validated: 1
EndChar

StartChar: k
Encoding: 107 107 14
GlifName: k
Width: 628
Flags: W
HStem: 0 21G<25 161 379.842 603> 497 20G<379.7 603> 715 20G<25 161>
VStem: 25 136<0 209 317 735>
LayerCount: 2
Fore
SplineSet
25 735 m 1
 161 735 l 1
 161 317 l 1
 404 517 l 1
 603 517 l 1
 280 266 l 1
 603 0 l 1
 403 0 l 1
 161 209 l 1
 161 0 l 1
 25 0 l 1
 25 735 l 1
EndSplineSet
Validated: 1
EndChar

StartChar: d
Encoding: 100 100 15
GlifName: d
Width: 640
Flags: W
HStem: -9 123<219.259 365.491> 0 21G<479 615> 403 123<216.503 365.491> 715 20G<479 615>
VStem: 25 136<173.049 345.747> 479 136<0 85 177.355 339.645 432 735>
LayerCount: 2
Fore
SplineSet
615 735 m 1xbc
 615 0 l 1
 479 0 l 1x7c
 479 85 l 1
 414 26 335 -9 255 -9 c 0
 134 -9 25 93 25 260 c 0
 25 425 134 526 255 526 c 0
 335 526 414 491 479 432 c 1
 479 735 l 1
 615 735 l 1xbc
479 320 m 1
 423 376 366 403 301 403 c 0
 211 403 161 352 161 260 c 0
 161 167 211 114 301 114 c 0xbc
 366 114 423 141 479 197 c 1
 479 320 l 1
EndSplineSet
Validated: 1
EndChar

StartChar: p
Encoding: 112 112 16
GlifName: p
Width: 640
Flags: W
HStem: -9 123<274.509 423.497> 403 123<274.509 420.741> 497 20G<25 161>
VStem: 25 136<-218 85 177.355 339.645 432 517> 479 136<171.253 343.951>
LayerCount: 2
Fore
SplineSet
25 -218 m 5xd8
 25 517 l 5
 161 517 l 5xb8
 161 432 l 5
 226 491 305 526 385 526 c 4
 506 526 615 424 615 257 c 4
 615 92 506 -9 385 -9 c 4
 305 -9 226 26 161 85 c 5
 161 -218 l 5
 25 -218 l 5xd8
161 197 m 5
 217 141 274 114 339 114 c 4
 429 114 479 165 479 257 c 4
 479 350 429 403 339 403 c 4xd8
 274 403 217 376 161 320 c 5
 161 197 l 5
EndSplineSet
Validated: 1
EndChar

StartChar: q
Encoding: 113 113 17
GlifName: q
Width: 640
Flags: W
HStem: -9 123<216.503 365.491> 403 123<219.259 365.491> 497 20G<479 615>
VStem: 25 136<171.253 343.951> 479 136<-218 85 177.355 339.645 432 517>
LayerCount: 2
Fore
SplineSet
615 -218 m 1xb8
 479 -218 l 1
 479 85 l 1
 414 26 335 -9 255 -9 c 0
 134 -9 25 92 25 257 c 0
 25 424 134 526 255 526 c 0xd8
 335 526 414 491 479 432 c 1
 479 517 l 1
 615 517 l 1
 615 -218 l 1xb8
479 197 m 1
 479 320 l 1
 423 376 366 403 301 403 c 0
 211 403 161 350 161 257 c 0
 161 165 211 114 301 114 c 0
 366 114 423 141 479 197 c 1
EndSplineSet
Validated: 1
EndChar

StartChar: braceright
Encoding: 125 125 18
GlifName: braceright
Width: 613
Flags: W
HStem: -21 120<181.815 345.117> -20 106<496.319 587.272> 224 110<186.235 355.837> 425 112<152.182 346.802>
VStem: 25 134<121.005 198.381> 396 124<126.195 197.151> 406 113<274 364.947>
LayerCount: 2
Fore
SplineSet
47 459 m 1xba
 85 495 168 537 271 537 c 0
 432 537 519 403 519 309 c 2xba
 520 140 l 2
 520 100 534 86 554 86 c 0
 564 86 576 90 588 95 c 1
 588 -1 l 1
 569 -14 547 -20 525 -20 c 0x7c
 468 -20 411 20 411 57 c 1
 390 10 316 -21 231 -21 c 0
 141 -21 25 27 25 156 c 0
 25 292 137 334 250 334 c 0
 304 334 383 313 406 274 c 1
 406 390 337 425 262 425 c 0
 172 425 126 392 93 366 c 1
 47 459 l 1xba
274 224 m 0
 205 224 159 199 159 158 c 0
 159 117 213 99 269 99 c 0
 334 99 396 123 396 162 c 0xbc
 396 203 330 224 274 224 c 0
EndSplineSet
Validated: 1
EndChar

StartChar: g
Encoding: 103 103 19
GlifName: g
Width: 640
Flags: W
HStem: -154 123<174.267 405.767> 17 123<213.821 365.491> 403 123<216.503 365.491> 497 20G<479 615>
VStem: 25 136<191.104 345.07> 479 136<26.7503 111 203.355 339.645 432 517>
LayerCount: 2
Fore
SplineSet
41 50 m 5xdc
 99 9 219 -31 296 -31 c 4
 392 -31 479 7 479 87 c 6
 479 111 l 1
 414 52 335 17 255 17 c 0
 134 17 25 110 25 267 c 0
 25 425 134 526 255 526 c 0xec
 335 526 414 491 479 432 c 1
 479 517 l 1
 615 517 l 1
 615 87 l 6
 615 -67 478 -154 341 -154 c 4
 226 -154 97 -121 41 -81 c 5
 41 50 l 5xdc
479 223 m 1
 479 320 l 1
 423 376 366 403 301 403 c 0
 211 403 161 351 161 267 c 0
 161 184 211 140 301 140 c 0
 366 140 423 167 479 223 c 1
EndSplineSet
Validated: 1
EndChar

StartChar: r
Encoding: 114 114 20
GlifName: r
Width: 378
Flags: HWO
HStem: 0 21G<25 161> 413 113<260.116 453.835> 497 20G<25 161>
VStem: 25 136<0 344.79 435 517>
LayerCount: 2
Fore
SplineSet
25 517 m 1
 161 517 l 1
 161 435 l 1
 223.832033165 496.748722248 288.441998309 526 362 526 c 1
 362 385 l 1
 349 385 l 2
 251.551685448 385 187.570197341 362.878740814 161 320 c 1
 161 0 l 1
 25 0 l 1
 25 517 l 1
EndSplineSet
EndChar

StartChar: w
Encoding: 119 119 21
GlifName: w
Width: 1125
Flags: W
HStem: 0 21G<220.147 429.26 686.153 895.24> 497 20G<25 181.775 491 642.082 949.509 1100>
LayerCount: 2
Fore
SplineSet
887 0 m 1
 694 0 l 1
 561 339 l 1
 421 0 l 1
 228 0 l 1
 25 517 l 1
 174 517 l 1
 326 126 l 1
 491 516 l 1
 491 517 l 1
 539 517 586 517 634 517 c 1
 792 126 l 1
 958 517 l 1
 1100 517 l 1
 887 0 l 1
EndSplineSet
Validated: 1
EndChar

StartChar: v
Encoding: 118 118 22
GlifName: v
Width: 659
Flags: W
HStem: 0 21G<220.147 429.24> 497 20G<25 181.775 483.509 634>
LayerCount: 2
Fore
SplineSet
421 0 m 1
 228 0 l 1
 25 517 l 1
 174 517 l 1
 326 126 l 1
 492 517 l 1
 634 517 l 1
 421 0 l 1
EndSplineSet
Validated: 1
EndChar

StartChar: x
Encoding: 120 120 23
GlifName: x
Width: 659
Flags: W
HStem: 0 21G<25 203.954 445.393 634> 497 20G<25 210.595 451.095 634>
LayerCount: 2
Fore
SplineSet
416 257 m 1
 634 0 l 1
 461 0 l 1
 326 173 l 1
 188 0 l 1
 25 0 l 1
 240 260 l 1
 25 517 l 1
 195 517 l 1
 326 349 l 1
 468 517 l 1
 634 517 l 1
 416 257 l 1
EndSplineSet
Validated: 1
EndChar

StartChar: z
Encoding: 122 122 24
GlifName: z
Width: 599
Flags: W
HStem: 0 127<220 574> 390 127<25 375>
LayerCount: 2
Fore
SplineSet
574 127 m 1
 574 0 l 1
 25 0 l 1
 25 127 l 1
 375 390 l 1
 25 390 l 1
 25 517 l 1
 574 517 l 1
 574 390 l 1
 220 127 l 1
 574 127 l 1
EndSplineSet
Validated: 1
EndChar

StartChar: f
Encoding: 102 102 25
GlifName: f
Width: 479
Flags: HW
HStem: 0 21G<146 282> 395 122<25 146 282 574> 627 123<329.601 489.885>
VStem: 146 136<0 395 517 578.07>
LayerCount: 2
Fore
SplineSet
454 517 m 1
 454 395 l 1
 262 395 l 1
 262 0 l 1
 126 0 l 1
 126 395 l 1
 25 395 l 1
 25 517 l 1
 126 517 l 1
 126 667 217.990566038 750 325 750 c 0
 388.892682927 750 419.4 732.714285714 443 717 c 1
 443 607 l 1
 418.784883721 621.666666667 388.639534884 631 358 631 c 0
 308.678899083 631 262 610.272727273 262 517 c 1
 454 517 l 1
EndSplineSet
EndChar

StartChar: t
Encoding: 116 116 26
GlifName: t
Width: 489
Flags: HW
HStem: 0 21G<227 363> 395 122<25 227 363 574>
VStem: 227 136<0 395 517 666>
LayerCount: 2
Fore
SplineSet
464 517 m 5
 464 395 l 5
 313 395 l 5
 313 0 l 5
 177 0 l 5
 177 395 l 5
 25 395 l 1
 25 517 l 1
 177 517 l 5
 177 666 l 5
 313 691 l 5
 313 517 l 5
 464 517 l 5
EndSplineSet
EndChar

StartChar: A
Encoding: 65 65 28
GlifName: A_
Width: 748
Flags: W
HStem: 0 21G<25 174.523 566.477 723> 109 127<256 485> 646 20G<268.462 476.628>
AnchorPoint: "Top AccentedMark" 372 736 basechar 0
LayerCount: 2
Fore
SplineSet
276 666 m 5
 469 666 l 5
 723 0 l 5
 574 0 l 5
 533 109 l 5
 208 109 l 5
 167 0 l 5
 25 0 l 5
 276 666 l 5
256 236 m 5
 485 236 l 5
 371 540 l 5
 256 236 l 5
EndSplineSet
Validated: 1
EndChar

StartChar: V
Encoding: 86 86 29
GlifName: V_
Width: 748
Flags: W
HStem: 0 21G<271.372 479.538> 646 20G<25 181.519 573.444 723>
LayerCount: 2
Fore
SplineSet
472 0 m 1
 279 0 l 1
 25 666 l 1
 174 666 l 1
 377 126 l 1
 581 666 l 1
 723 666 l 1
 472 0 l 1
EndSplineSet
Validated: 1
EndChar

StartChar: H
Encoding: 72 72 30
GlifName: H_
Width: 654
Flags: W
HStem: 0 21G<25 161 493 629> 262 127<161 493> 646 20G<25 161 493 629>
VStem: 25 136<0 262 389 666> 493 136<0 262 389 666>
LayerCount: 2
Fore
SplineSet
25 666 m 1
 161 666 l 1
 161 389 l 1
 493 389 l 1
 493 666 l 1
 629 666 l 1
 629 0 l 1
 493 0 l 1
 493 262 l 1
 161 262 l 1
 161 0 l 1
 25 0 l 1
 25 666 l 1
EndSplineSet
Validated: 1
EndChar

StartChar: I
Encoding: 73 73 31
GlifName: I_
Width: 186
Flags: W
HStem: 0 21G<25 161> 646 20G<25 161>
VStem: 25 136<0 666>
AnchorPoint: "Top AccentedMark" 92 735 basechar 0
LayerCount: 2
Fore
SplineSet
25 666 m 1
 161 666 l 1
 161 0 l 1
 25 0 l 1
 25 666 l 1
EndSplineSet
Validated: 1
EndChar

StartChar: L
Encoding: 76 76 32
GlifName: L_
Width: 599
Flags: W
HStem: 0 127<161 574> 646 20G<25 161>
VStem: 25 136<127 666>
LayerCount: 2
Fore
SplineSet
25 666 m 1
 161 666 l 1
 161 127 l 1
 574 127 l 1
 574 0 l 1
 25 0 l 1
 25 666 l 1
EndSplineSet
Validated: 1
EndChar

StartChar: E
Encoding: 69 69 33
GlifName: E_
Width: 599
Flags: W
HStem: 0 127<161 574> 287 127<161 512> 539 127<161 574>
VStem: 25 136<127 287 414 539>
AnchorPoint: "Top AccentedMark" 297 735 basechar 0
LayerCount: 2
Fore
SplineSet
574 127 m 5
 574 0 l 5
 25 0 l 5
 25 666 l 5
 574 666 l 5
 574 539 l 5
 161 539 l 5
 161 414 l 5
 512 414 l 5
 512 287 l 5
 161 287 l 5
 161 127 l 5
 574 127 l 5
EndSplineSet
Validated: 1
EndChar

StartChar: F
Encoding: 70 70 34
GlifName: F_
Width: 599
Flags: W
HStem: 0 21G<25 161> 287 127<161 512> 539 127<161 574>
VStem: 25 136<0 287 414 539>
LayerCount: 2
Fore
SplineSet
574 666 m 1
 574 539 l 1
 161 539 l 1
 161 414 l 1
 512 414 l 1
 512 287 l 1
 161 287 l 1
 161 0 l 1
 25 0 l 1
 25 666 l 1
 574 666 l 1
EndSplineSet
Validated: 1
EndChar

StartChar: O
Encoding: 79 79 35
GlifName: O_
Width: 744
Flags: W
HStem: -14 120<266.689 462.726> 555 126<275.728 464.065>
VStem: 25 134<223.895 437.554> 585 134<234.796 435.073>
AnchorPoint: "Top AccentedMark" 372 735 basechar 0
LayerCount: 2
Fore
SplineSet
367 681 m 4
 559 681 719 531 719 326 c 4
 719 127 551 -14 369 -14 c 4
 156 -14 25 119 25 341 c 4
 25 539 167 681 367 681 c 4
375 555 m 4
 238 555 159 464 159 332 c 4
 159 191 237 106 370 106 c 4
 492 106 585 199 585 337 c 4
 585 466 490 555 375 555 c 4
EndSplineSet
Validated: 1
EndChar

StartChar: C
Encoding: 67 67 36
GlifName: C_
Width: 712
Flags: W
HStem: -16 126<288.71 545.626> 554 127<278.638 516.074>
VStem: 25 132<241.959 434.12>
AnchorPoint: "Bottom AccentedMark" 374 -26 basechar 0
LayerCount: 2
Fore
SplineSet
25 335 m 0
 25 560 187 681 374 681 c 0
 502 681 631 632 687 571 c 1
 687 443 l 1
 633 500 491 554 382 554 c 0
 273 554 157 492 157 335 c 0
 157 194 273 110 389 110 c 0
 515 110 634 150 687 216 c 1
 687 88 l 1
 632 21 524 -16 374 -16 c 0
 187 -16 25 130 25 335 c 0
EndSplineSet
Validated: 1
EndChar

StartChar: G
Encoding: 71 71 37
GlifName: G_
Width: 712
Flags: W
HStem: -16 125<271.586 483.365> 230 113<304 558> 556 126<270.598 497.693>
VStem: 25 132<230.398 443.376>
LayerCount: 2
Fore
SplineSet
362 -16 m 0
 165 -16 25 122 25 335 c 0
 25 564 175 682 366 682 c 0
 487 682 604 629 657 571 c 1
 657 443 l 1
 607 496 481 556 377 556 c 0
 260 556 157 498 157 335 c 0
 157 191 248 109 364 109 c 0
 482 109 544 148 558 230 c 1
 304 230 l 1
 304 343 l 1
 687 343 l 1
 687 80 584 -16 362 -16 c 0
EndSplineSet
Validated: 1
EndChar

StartChar: J
Encoding: 74 74 38
GlifName: J_
Width: 405
Flags: W
HStem: -8 133<79.8241 229.31> 646 20G<244 380>
VStem: 244 136<140.926 666>
LayerCount: 2
Fore
SplineSet
244 666 m 5
 380 666 l 5
 380 145 l 6
 380 56 311 -8 192 -8 c 4
 139 -8 68 12 25 39 c 5
 25 171 l 5
 74 140 116 125 157 125 c 4
 206 126 244 138 244 188 c 6
 244 666 l 5
EndSplineSet
Validated: 1
EndChar

StartChar: Y
Encoding: 89 89 39
GlifName: Y_
Width: 741
Flags: W
HStem: 0 21G<318 446> 646 20G<25 207.603 538.288 716>
VStem: 318 128<0 245>
AnchorPoint: "Top AccentedMark" 372 735 basechar 0
LayerCount: 2
Fore
SplineSet
446 245 m 1
 446 0 l 1
 318 0 l 1
 318 245 l 1
 25 666 l 1
 195 666 l 1
 379 374 l 1
 550 666 l 1
 716 666 l 1
 446 245 l 1
EndSplineSet
Validated: 1
EndChar

StartChar: W
Encoding: 87 87 40
GlifName: W_
Width: 1297
Flags: W
HStem: 0 21G<271.372 479.521 820.563 1028.54> 646 20G<25 181.519 573.444 730.519 1122.44 1272>
LayerCount: 2
Fore
SplineSet
1021 0 m 1
 828 0 l 1
 651 476 l 1
 472 0 l 1
 279 0 l 1
 25 666 l 1
 174 666 l 1
 377 126 l 1
 581 666 l 1
 723 666 l 1
 926 126 l 1
 1130 666 l 1
 1272 666 l 1
 1021 0 l 1
EndSplineSet
Validated: 1
EndChar

StartChar: X
Encoding: 88 88 41
GlifName: X_
Width: 741
Flags: W
HStem: 0 21G<25 203.403 543.565 716> 646 20G<25 210.207 535.868 716>
LayerCount: 2
Fore
SplineSet
466 331 m 1
 716 0 l 1
 558 0 l 1
 379 248 l 1
 188 0 l 1
 25 0 l 1
 293 335 l 1
 25 666 l 1
 195 666 l 1
 379 424 l 1
 550 666 l 1
 716 666 l 1
 466 331 l 1
EndSplineSet
Validated: 1
EndChar

StartChar: Z
Encoding: 90 90 42
GlifName: Z_
Width: 668
Flags: W
HStem: 0 127<220 643> 539 127<25 444>
LayerCount: 2
Fore
SplineSet
643 127 m 1
 643 0 l 1
 25 0 l 1
 25 127 l 1
 444 539 l 1
 25 539 l 1
 25 666 l 1
 643 666 l 1
 643 539 l 1
 220 127 l 1
 643 127 l 1
EndSplineSet
Validated: 1
EndChar

StartChar: U
Encoding: 85 85 43
GlifName: U_
Width: 659
Flags: W
HStem: -14 120<243.366 407.834> 646 20G<25 159>
VStem: 25 134<203.084 666> 500 134<208.308 664>
AnchorPoint: "Top AccentedMark" 334 734 basechar 0
LayerCount: 2
Fore
SplineSet
328 106 m 0
 442 106 500 204 500 309 c 2
 500 664 l 1
 634 664 l 1
 634 545 634 426 634 307 c 0
 633 121 500 -14 327 -14 c 0
 136 -14 25 122 25 311 c 2
 25 666 l 1
 159 666 l 1
 159 311 l 2
 159 194 217 106 328 106 c 0
EndSplineSet
Validated: 1
EndChar

StartChar: B
Encoding: 66 66 44
GlifName: B_
Width: 669
Flags: W
HStem: 0 127<161 492.312> 297 117<161 459.161> 539 127<161 454.931>
VStem: 25 136<127 297 414 539> 474 120<431.121 520.559> 524 120<153.753 252.101>
LayerCount: 2
Fore
SplineSet
349 297 m 6xf4
 161 297 l 1
 161 127 l 1
 363 126 l 6
 468 126 524 140 524 204 c 4
 524 255 466 297 349 297 c 6xf4
25 666 m 1
 313 667 l 6
 500 667 594 615 594 471 c 4xf8
 594 425 570 390 536 363 c 5
 596 332 644 283 644 205 c 4
 644 61 550 -1 363 -1 c 6
 25 0 l 1
 25 666 l 1
161 539 m 1
 161 414 l 1
 309 414 l 6
 426 414 474 421 474 472 c 4
 474 536 418 540 313 540 c 6
 161 539 l 1
EndSplineSet
Validated: 1
EndChar

StartChar: D
Encoding: 68 68 45
GlifName: D_
Width: 669
Flags: W
HStem: 0 127<161 431.141> 539 127<161 413.726>
VStem: 25 136<127 539> 524 120<223.985 428.695>
LayerCount: 2
Fore
SplineSet
319 539 m 6
 161 539 l 5
 161 127 l 5
 333 126 l 5
 438 126 524 180 524 334 c 4
 524 455 436 539 319 539 c 6
25 0 m 5
 25 666 l 5
 319 666 l 6
 456 666 644 572 644 335 c 4
 644 101 520 -1 333 -1 c 6
 25 0 l 5
EndSplineSet
Validated: 1
EndChar

StartChar: P
Encoding: 80 80 46
GlifName: P_
Width: 669
Flags: W
HStem: 0 21G<25 161> 252 127<161 487.812> 539 127<161 492.312>
VStem: 25 136<0 252 379 539> 524 120<409.166 510.023>
LayerCount: 2
Fore
SplineSet
25 0 m 5
 25 666 l 5
 363 667 l 6
 550 667 644 611 644 456 c 4
 644 282 534 252 369 252 c 6
 161 252 l 5
 161 0 l 5
 25 0 l 5
161 379 m 5
 369 379 l 6
 486 379 524 407 524 458 c 4
 524 522 468 540 363 540 c 6
 161 539 l 5
 161 379 l 5
EndSplineSet
Validated: 1
EndChar

StartChar: R
Encoding: 82 82 47
GlifName: R_
Width: 669
Flags: W
HStem: 0 21G<25 161 462.444 623> 252 127<161 340> 539 127<161 487.906>
VStem: 25 136<0 252 379 539> 524 120<409.893 509.785>
LayerCount: 2
Fore
SplineSet
25 0 m 1
 25 666 l 1
 365 667 l 0
 553 667 644 590 644 456 c 0
 644 331 578 273 472 258 c 1
 623 0 l 1
 473 0 l 1
 340 252 l 1
 161 252 l 1
 161 0 l 1
 25 0 l 1
369 379 m 2
 486 379 524 407 524 458 c 0
 524 522 468 540 363 540 c 2
 161 539 l 1
 161 379 l 1
 369 379 l 2
EndSplineSet
Validated: 1
EndChar

StartChar: K
Encoding: 75 75 48
GlifName: K_
Width: 692
Flags: W
HStem: 0 21G<25 161 462.762 667> 646 21G<25 161 463.778 667>
VStem: 25 136<0 269 397 666>
LayerCount: 2
Fore
SplineSet
25 666 m 1
 161 666 l 1
 161 397 l 1
 488 667 l 1
 667 667 l 1
 280 336 l 1
 667 0 l 1
 487 0 l 1
 161 269 l 1
 161 0 l 1
 25 0 l 1
 25 666 l 1
EndSplineSet
Validated: 1
EndChar

StartChar: T
Encoding: 84 84 49
GlifName: T_
Width: 707
Flags: W
HStem: 0 21G<287 423> 540 127<25 287 423 682>
VStem: 287 136<0 540>
LayerCount: 2
Fore
SplineSet
682 667 m 1
 682 540 l 1
 423 540 l 1
 423 0 l 1
 287 0 l 1
 287 540 l 1
 25 540 l 1
 25 667 l 1
 682 667 l 1
EndSplineSet
Validated: 1
EndChar

StartChar: S
Encoding: 83 83 50
GlifName: S_
Width: 684
Flags: W
HStem: -21 125<172.315 485.582> 557 120<204.906 511.173>
VStem: 25 128<431.608 515.735> 525 134<138.351 225.987>
LayerCount: 2
Fore
SplineSet
637 599 m 1
 637 484 l 1
 542 540 438 557 324 557 c 0
 227 557 154 528 153 474 c 0
 153 410 242 400 362 386 c 0
 511 368 659 344 659 199 c 0
 659 26 542 -21 349 -21 c 0
 223 -21 114 6 28 68 c 1
 28 195 l 1
 134 123 221 104 353 104 c 0
 462 104 525 127 525 184 c 0
 525 250 432 257 310 272 c 0
 164 290 25 317 25 464 c 0
 25 630 188 677 343 677 c 0
 456 677 543 658 637 599 c 1
EndSplineSet
Validated: 1
EndChar

StartChar: N
Encoding: 78 78 51
GlifName: N_
Width: 752
Flags: W
HStem: 0 21G<25 167 518.36 727> 646 20G<25 230.76 585 727>
VStem: 25 142<0 500> 585 142<166 666>
AnchorPoint: "Top AccentedMark" 367 735 basechar 0
LayerCount: 2
Fore
SplineSet
25 666 m 1
 216 666 l 1
 585 166 l 1
 585 666 l 1
 727 666 l 1
 727 0 l 1
 533 0 l 1
 167 500 l 1
 167 0 l 1
 25 0 l 1
 25 666 l 1
EndSplineSet
Validated: 1
EndChar

StartChar: M
Encoding: 77 77 52
GlifName: M_
Width: 997
Flags: W
HStem: 0 21G<25 167 404.12 592.88 830 972> 646 20G<25 228.938 768.023 972>
VStem: 25 142<0 500> 830 142<0 500>
LayerCount: 2
Fore
SplineSet
25 666 m 1
 218 666 l 1
 498 154 l 1
 779 666 l 1
 972 666 l 1
 972 0 l 1
 830 0 l 1
 830 500 l 1
 583 0 l 1
 414 0 l 1
 167 500 l 1
 167 0 l 1
 25 0 l 1
 25 666 l 1
EndSplineSet
Validated: 1
EndChar

StartChar: Q
Encoding: 81 81 53
GlifName: Q_
Width: 744
Flags: W
HStem: -14 120<266.689 404.524> 555 126<275.728 464.065>
VStem: 25 134<223.895 437.554> 585 134<232.151 435.073>
LayerCount: 2
Fore
SplineSet
367 681 m 0
 559 681 719 531 719 326 c 0
 719 216 667 123 590 63 c 1
 687 -74 l 1
 537 -74 l 1
 481 4 l 1
 445 -8 407 -14 369 -14 c 0
 156 -14 25 119 25 341 c 0
 25 539 167 681 367 681 c 0
375 555 m 0
 238 555 159 464 159 332 c 0
 159 191 237 106 370 106 c 0
 382 106 394 106 405 108 c 1
 286 272 l 1
 442 272 l 5
 518 165 l 1
 560 206 585 265 585 337 c 0
 585 466 490 555 375 555 c 0
EndSplineSet
Validated: 1
EndChar

StartChar: comma
Encoding: 44 44 54
GlifName: comma
Width: 205
Flags: W
HStem: -125 246<54 99>
VStem: 25 155
LayerCount: 2
Fore
SplineSet
54 121 m 5
 180 121 l 5
 99 -125 l 5
 25 -125 l 5
 54 121 l 5
EndSplineSet
Validated: 1
EndChar

StartChar: period
Encoding: 46 46 55
GlifName: period
Width: 206
Flags: W
HStem: -14 135<45.1149 160.885>
VStem: 25 156<6.125 101.375>
LayerCount: 2
Fore
SplineSet
25 54 m 0
 25 91 56 121 103 121 c 0
 150 121 181 91 181 54 c 0
 181 17 150 -14 103 -14 c 0
 56 -14 25 17 25 54 c 0
EndSplineSet
Validated: 1
EndChar

StartChar: question
Encoding: 63 63 56
GlifName: question
Width: 604
Flags: W
HStem: -14 135<220.115 335.885> 188 186<220 336> 254 120<340 415.157> 547 126<153.008 387.282>
VStem: 200 156<6.125 101.375> 220 116<188 254> 445 134<399.671 500.455>
LayerCount: 2
Fore
SplineSet
200 54 m 4x9a
 200 91 231 121 278 121 c 4
 325 121 356 91 356 54 c 4
 356 17 325 -14 278 -14 c 4
 231 -14 200 17 200 54 c 4x9a
210 374 m 5xb6
 346 374 l 6
 397 374 445 394 445 453 c 4
 445 510 371 547 287 547 c 4
 183 547 101 513 25 459 c 5
 25 589 l 5
 94 642 162 673 296 673 c 4
 449 673 579 599 579 462 c 4
 579 317 483 258 340 254 c 5xb6
 336 188 l 5
 220 188 l 5xd6
 210 374 l 5xb6
EndSplineSet
Validated: 1
EndChar

StartChar: exclam
Encoding: 33 33 57
GlifName: exclam
Width: 206
Flags: W
HStem: -14 135<45.1149 160.885> 646 20G<36 172>
VStem: 25 156<6.125 101.375> 36 136<331.4 666> 46 116<188 522.6>
LayerCount: 2
Fore
SplineSet
25 54 m 4xe0
 25 91 56 121 103 121 c 4
 150 121 181 91 181 54 c 4
 181 17 150 -14 103 -14 c 4
 56 -14 25 17 25 54 c 4xe0
36 666 m 5xd0
 172 666 l 5xd0
 162 188 l 5
 46 188 l 5xc8
 36 666 l 5xd0
EndSplineSet
Validated: 1
EndChar

StartChar: semicolon
Encoding: 59 59 58
GlifName: semicolon
Width: 206
Flags: W
HStem: 316 135<45.1149 160.885>
VStem: 25 156<336.125 431.375>
LayerCount: 2
Fore
SplineSet
25 384 m 0
 25 421 56 451 103 451 c 0
 150 451 181 421 181 384 c 0
 181 347 150 316 103 316 c 0
 56 316 25 347 25 384 c 0
54 251 m 1
 180 251 l 1
 99 5 l 1
 25 5 l 1
 54 251 l 1
EndSplineSet
Validated: 1
EndChar

StartChar: slash
Encoding: 47 47 59
GlifName: slash
Width: 340
Flags: W
HStem: 0 21G<25 165.625> 646 20G<174.375 315>
VStem: 25 290
LayerCount: 2
Fore
SplineSet
179 666 m 5
 315 666 l 5
 161 0 l 5
 25 0 l 5
 179 666 l 5
EndSplineSet
Validated: 1
EndChar

StartChar: colon
Encoding: 58 58 60
GlifName: colon
Width: 206
Flags: W
HStem: 116 135<45.1149 160.885> 316 135<45.1149 160.885>
VStem: 25 156<136.125 231.375 336.125 431.375>
LayerCount: 2
Fore
SplineSet
25 384 m 4
 25 421 56 451 103 451 c 4
 150 451 181 421 181 384 c 4
 181 347 150 316 103 316 c 4
 56 316 25 347 25 384 c 4
25 184 m 4
 25 221 56 251 103 251 c 4
 150 251 181 221 181 184 c 4
 181 147 150 116 103 116 c 4
 56 116 25 147 25 184 c 4
EndSplineSet
Validated: 1
EndChar

StartChar: hyphen
Encoding: 45 45 61
GlifName: hyphen
Width: 499
Flags: W
HStem: 250 127<25 474>
LayerCount: 2
Fore
SplineSet
474 250 m 5
 25 250 l 5
 25 377 l 5
 474 377 l 5
 474 250 l 5
EndSplineSet
Validated: 1
EndChar

StartChar: plus
Encoding: 43 43 62
GlifName: plus
Width: 499
Flags: W
HStem: 250 127<25 179 306 474> 508 20G<179 306>
VStem: 179 127<79 250 377 528>
LayerCount: 2
Fore
SplineSet
474 250 m 1
 306 250 l 1
 306 79 l 1
 179 79 l 1
 179 250 l 1
 25 250 l 1
 25 377 l 1
 179 377 l 1
 179 528 l 1
 306 528 l 1
 306 377 l 1
 474 377 l 1
 474 250 l 1
EndSplineSet
Validated: 1
EndChar

StartChar: dollar
Encoding: 36 36 63
GlifName: dollar
Width: 654
Flags: W
HStem: -39 199<258.17 385.967> 277 123<181.095 463.829> 497 199<260.108 388.047>
VStem: 258 131<-39 48.8204 598.232 696> 495 134<190.587 248.873>
LayerCount: 2
Fore
SplineSet
607 525 m 1
 607 401 l 1
 511 457 426 497 301 497 c 0
 236 497 154 468 153 445 c 0
 153 419 227 403 314 400 c 0
 446 396 629 368 629 235 c 0
 629 110 508 58 389 47 c 1
 389 -39 l 1
 258 -39 l 1
 258 49 l 1
 169 59 95 86 28 134 c 1
 28 261 l 1
 134 189 211 160 343 160 c 0
 412 160 495 183 495 220 c 0
 495 261 423 273 309 277 c 0
 169 281 25 321 25 430 c 0
 25 545 141 589 258 600 c 1
 258 696 l 1
 389 696 l 1
 389 600 l 1
 468 593 532 571 607 525 c 1
EndSplineSet
Validated: 1
EndChar

StartChar: less
Encoding: 60 60 64
GlifName: less
Width: 510
Flags: W
LayerCount: 2
Fore
SplineSet
25 330 m 5
 485 559 l 5
 485 410 l 5
 162 262 l 5
 485 113 l 5
 485 -39 l 5
 25 202 l 5
 25 330 l 5
EndSplineSet
Validated: 1
EndChar

StartChar: greater
Encoding: 62 62 65
GlifName: greater
Width: 510
Flags: W
LayerCount: 2
Fore
SplineSet
485 191 m 1
 25 -38 l 1
 25 111 l 1
 348 261 l 1
 25 408 l 1
 25 560 l 1
 485 319 l 1
 485 191 l 1
EndSplineSet
Validated: 1
EndChar

StartChar: equal
Encoding: 61 61 66
GlifName: equal
Width: 589
Flags: W
HStem: 140 127<25 564> 349 127<25 564>
LayerCount: 2
Fore
SplineSet
564 140 m 5
 25 140 l 5
 25 267 l 5
 564 267 l 5
 564 140 l 5
564 349 m 1
 25 349 l 1
 25 476 l 1
 564 476 l 1
 564 349 l 1
EndSplineSet
Validated: 1
EndChar

StartChar: at
Encoding: 64 64 67
GlifName: at
Width: 759
Flags: W
HStem: -161 127<154 734> 17 123<379.196 496.112> 369 123<379.196 496.112> 539 127<154 598>
VStem: 25 129<-34 539> 204 136<179.98 327.596> 598 136<26 111 203.068 305.932 398 539>
LayerCount: 2
Fore
SplineSet
449 140 m 0
 506 140 542 166 598 223 c 1
 598 286 l 1
 542 343 506 369 449 369 c 0
 380 369 340 327 340 256 c 0
 340 183 380 140 449 140 c 0
734 26 m 1
 598 26 l 1
 598 111 l 1
 533 52 474 17 404 17 c 0
 303 17 204 109 204 256 c 0
 204 401 303 492 404 492 c 0
 474 492 533 457 598 398 c 1
 598 539 l 1
 154 539 l 1
 154 -34 l 1
 734 -34 l 1
 734 -161 l 1
 25 -161 l 1
 25 666 l 1
 734 666 l 1
 734 26 l 1
EndSplineSet
Validated: 1
EndChar

StartChar: underscore
Encoding: 95 95 68
GlifName: underscore
Width: 639
Flags: W
HStem: -13 127<25 614>
LayerCount: 2
Fore
SplineSet
614 -13 m 5
 25 -13 l 5
 25 114 l 5
 614 114 l 5
 614 -13 l 5
EndSplineSet
Validated: 1
EndChar

StartChar: asciicircum
Encoding: 94 94 69
GlifName: asciicircum
Width: 628
Flags: W
HStem: 666 254
LayerCount: 2
Fore
SplineSet
384 920 m 5
 603 666 l 5
 454 666 l 5
 316 824 l 5
 177 666 l 5
 25 666 l 5
 256 920 l 5
 384 920 l 5
EndSplineSet
Validated: 1
EndChar

StartChar: quotesingle
Encoding: 39 39 70
GlifName: quotesingle
Width: 205
Flags: W
HStem: 517 246<54 99>
VStem: 25 155
LayerCount: 2
Fore
SplineSet
54 763 m 5
 180 763 l 5
 99 517 l 5
 25 517 l 5
 54 763 l 5
EndSplineSet
Validated: 1
EndChar

StartChar: grave
Encoding: 96 96 71
GlifName: grave
Width: 255
Flags: W
HStem: 666 208<148 151>
VStem: 25 205
LayerCount: 2
Fore
SplineSet
25 874 m 25
 151 874 l 25
 230 666 l 25
 148 666 l 25
 25 874 l 25
EndSplineSet
Validated: 1
EndChar

StartChar: quotedbl
Encoding: 34 34 72
GlifName: quotedbl
Width: 355
Flags: W
HStem: 517 246<54 99 204 249>
VStem: 25 305
LayerCount: 2
Fore
SplineSet
204 763 m 1
 330 763 l 1
 249 517 l 1
 175 517 l 1
 204 763 l 1
54 763 m 1
 180 763 l 1
 99 517 l 1
 25 517 l 1
 54 763 l 1
EndSplineSet
Validated: 1
EndChar

StartChar: bracketleft
Encoding: 91 91 73
GlifName: bracketleft
Width: 404
Flags: W
HStem: 0 127<161 379> 539 127<161 379>
VStem: 25 354<0 127 539 666> 25 136<127 539>
LayerCount: 2
Fore
SplineSet
161 539 m 5xd0
 161 127 l 5xd0
 379 127 l 5
 379 0 l 5
 25 0 l 5
 25 666 l 5
 379 666 l 5
 379 539 l 5xe0
 161 539 l 5xd0
EndSplineSet
Validated: 1
EndChar

StartChar: bracketright
Encoding: 93 93 74
GlifName: bracketright
Width: 404
Flags: W
HStem: 0 127<25 243> 539 127<25 243>
VStem: 25 354<0 127 539 666> 243 136<127 539>
LayerCount: 2
Fore
SplineSet
243 127 m 5xd0
 243 539 l 5xd0
 25 539 l 5
 25 666 l 5
 379 666 l 5
 379 0 l 5
 25 0 l 5
 25 127 l 5xe0
 243 127 l 5xd0
EndSplineSet
Validated: 1
EndChar

StartChar: backslash
Encoding: 92 92 75
GlifName: backslash
Width: 340
Flags: W
HStem: 0 21G<174.375 315> 646 20G<25 165.625>
VStem: 25 290
LayerCount: 2
Fore
SplineSet
161 666 m 1
 315 0 l 1
 179 0 l 1
 25 666 l 1
 161 666 l 1
EndSplineSet
Validated: 1
EndChar

StartChar: bar
Encoding: 124 124 76
GlifName: bar
Width: 186
Flags: W
VStem: 25 136<-200 801>
LayerCount: 2
Fore
SplineSet
25 801 m 5
 161 801 l 5
 161 -200 l 5
 25 -200 l 5
 25 801 l 5
EndSplineSet
Validated: 1
EndChar

StartChar: numbersign
Encoding: 35 35 77
GlifName: numbersign
Width: 700
Flags: W
HStem: 0 21G<86 226.581 316 456.581> 179 126<55 127 523 601> 179 116<281 357> 391 126<99 176 572 645> 401 116<342 418> 646 20G<235.436 376 465.436 606>
LayerCount: 2
Fore
SplineSet
240 666 m 1x8c
 376 666 l 1
 342 517 l 1
 436 517 l 1x8c
 470 666 l 1
 606 666 l 1
 572 517 l 1x94
 675 517 l 1x8c
 645 391 l 1
 542 391 l 1
 523 305 l 1
 631 305 l 1
 601 179 l 1xd4
 493 179 l 1
 452 0 l 1
 316 0 l 1
 357 179 l 1
 263 179 l 1xa4
 222 0 l 1
 86 0 l 1
 127 179 l 1xc4
 25 179 l 1xa4
 55 305 l 1
 157 305 l 1
 176 391 l 1
 69 391 l 1
 99 517 l 1xd4
 206 517 l 1
 240 666 l 1x8c
418 401 m 1
 304 401 l 1
 281 295 l 1
 395 295 l 1xac
 418 401 l 1
EndSplineSet
Validated: 1
EndChar

StartChar: parenleft
Encoding: 40 40 78
GlifName: parenleft
Width: 404
Flags: W
HStem: 0 127<249.736 379> 539 127<259.998 379>
VStem: 25 136<211.528 442.826>
LayerCount: 2
Fore
SplineSet
161 333 m 4
 161 177 225 127 379 127 c 5
 379 0 l 5
 92 0 25 168 25 333 c 4
 25 485 92 666 379 666 c 5
 379 539 l 5
 230 539 161 475 161 333 c 4
EndSplineSet
Validated: 1
EndChar

StartChar: parenright
Encoding: 41 41 79
GlifName: parenright
Width: 404
Flags: W
HStem: 0 127<25 144.002> 539 127<25 154.264>
VStem: 243 136<223.174 454.472>
LayerCount: 2
Fore
SplineSet
243 333 m 4
 243 489 179 539 25 539 c 5
 25 666 l 5
 312 666 379 498 379 333 c 4
 379 181 312 0 25 0 c 5
 25 127 l 5
 174 127 243 191 243 333 c 4
EndSplineSet
Validated: 1
EndChar

StartChar: braceleft
Encoding: 123 123 80
GlifName: braceleft
Width: 655
Flags: W
HStem: -21 116<197.285 384.323> 0 21G<501 630> 250 64<207.128 501> 424 113<198.399 443.896>
VStem: 25 134<126.692 211.827> 501 129<0 74 151.058 250 314 375.368>
LayerCount: 2
Fore
SplineSet
47 459 m 1xbc
 141 511 221 537 351 537 c 0
 493 537 629 465 629 349 c 2
 630 0 l 1
 501 0 l 1x7c
 501 74 l 1
 457 22 355 -21 271 -21 c 0
 121 -21 25 47 25 156 c 0
 25 292 217 314 340 314 c 0
 501 314 l 0
 501 386 438 423 338 424 c 1
 221 420 143 389 47 335 c 1
 47 459 l 1xbc
501 250 m 1
 345 250 l 0
 210 250 159 215 159 164 c 0
 159 123 220 95 310 95 c 0xbc
 393 96 463 126 501 171 c 1
 501 250 l 1
EndSplineSet
Validated: 1
EndChar

StartChar: asciitilde
Encoding: 126 126 81
GlifName: asciitilde
Width: 668
Flags: W
HStem: 666 126<389.357 557.061> 756 124<116.001 278.621>
LayerCount: 2
Fore
SplineSet
453 666 m 4x80
 356 666 293 756 196 756 c 28x40
 105 756 25 666 25 666 c 5x80
 25 799 l 5
 25 799 91 880 215 880 c 4x40
 311 880 376 792 472 792 c 28
 563 792 643 870 643 870 c 5
 643 740 l 5
 643 740 565 666 453 666 c 4x80
EndSplineSet
Validated: 1
EndChar

StartChar: asterisk
Encoding: 42 42 82
GlifName: asterisk
Width: 186
Flags: W
HStem: 666 21G<38 86.7143 101.286 150> 730 43<25 43 143.667 161>
VStem: 25 136<730 752>
LayerCount: 2
Fore
SplineSet
25 730 m 1
 25 773 l 1
 79 752 l 1
 76 800 l 1
 114 800 l 1
 109 752 l 1
 161 769 l 1
 161 729 l 1
 116 720 l 1
 150 666 l 1
 111 666 l 1
 94 701 l 1
 77 666 l 1
 38 666 l 1
 70 720 l 1
 25 730 l 1
EndSplineSet
Validated: 1
EndChar

StartChar: zero
Encoding: 48 48 83
GlifName: zero
Width: 654
Flags: W
HStem: -14 120<251.391 405.498> 551 126<255.539 406.773>
VStem: 25 134<210.047 439.985> 495 134<212.087 444.171>
LayerCount: 2
Fore
SplineSet
327 677 m 4
 488 677 629 536 629 323 c 4
 629 113 480 -14 329 -14 c 4
 159 -14 25 105 25 338 c 4
 25 544 170 677 327 677 c 4
335 551 m 4
 241 551 159 469 159 329 c 4
 159 177 240 106 330 106 c 4
 421 106 495 185 495 334 c 4
 495 471 419 551 335 551 c 4
EndSplineSet
Validated: 1
EndChar

StartChar: one
Encoding: 49 49 84
GlifName: one
Width: 435
Flags: W
HStem: 0 21G<274 410> 646 20G<240.577 410>
VStem: 274 136<0 521>
LayerCount: 2
Fore
SplineSet
274 666 m 5
 410 666 l 5
 410 0 l 5
 274 0 l 5
 274 521 l 5
 25 381 l 5
 25 517 l 5
 274 666 l 5
EndSplineSet
Validated: 1
EndChar

StartChar: eight
Encoding: 56 56 85
GlifName: eight
Width: 654
Flags: W
HStem: -14 120<223.212 430.535> 305 92<228.669 424.382> 556 126<225.555 427.047>
VStem: 25 134<155.601 252.245> 55 134<430.834 521.753> 465 134<433.256 523.381> 495 134<158.478 256.766>
LayerCount: 2
Fore
SplineSet
327 556 m 0xec
 233 556 189 520 189 480 c 0
 189 428 242 397 329 397 c 0
 420 397 465 434 465 485 c 0
 465 522 411 556 327 556 c 0xec
329 682 m 0
 490 682 599 602 599 479 c 0xec
 599 427 549 375 504 354 c 1
 566 328 629 263 629 193 c 0
 629 73 482 -14 331 -14 c 0
 161 -14 25 65 25 208 c 0xf2
 25 271 87 331 146 354 c 1
 102 376 55 432 55 494 c 0
 55 610 172 682 329 682 c 0
159 204 m 0xf2
 159 142 242 106 332 106 c 0
 423 106 495 150 495 209 c 0
 495 268 418 305 331 305 c 0
 240 305 159 262 159 204 c 0xf2
EndSplineSet
Validated: 1
EndChar

StartChar: percent
Encoding: 37 37 86
GlifName: percent
Width: 1275
Flags: W
HStem: -12 120<908.078 1069.03> 0 21G<490 630.625> 205 120<207.078 368.029> 330 126<909.018 1076.49> 547 126<208.018 375.491> 646 20G<639.375 780>
VStem: 25 134<372.257 502.387> 415 134<372.238 508.338> 726 134<155.257 285.387> 1116 134<155.238 291.338>
LayerCount: 2
Fore
SplineSet
990 456 m 0xb3c0
 1141 456 1250 358 1250 215 c 0
 1250 85 1133 -12 992 -12 c 0
 832 -12 726 77 726 230 c 0
 726 366 843 456 990 456 c 0xb3c0
998 330 m 0
 914 330 860 291 860 221 c 0
 860 149 913 108 993 108 c 0
 1074 108 1116 157 1116 226 c 0
 1116 293 1072 330 998 330 c 0
289 673 m 0x3bc0
 440 673 549 575 549 432 c 0
 549 302 432 205 291 205 c 0
 131 205 25 294 25 447 c 0
 25 583 142 673 289 673 c 0x3bc0
297 547 m 0
 213 547 159 508 159 438 c 0
 159 366 212 325 292 325 c 0
 373 325 415 374 415 443 c 0
 415 510 371 547 297 547 c 0
644 666 m 1x77c0
 780 666 l 1
 626 0 l 1
 490 0 l 1
 644 666 l 1x77c0
EndSplineSet
Validated: 1
EndChar

StartChar: cent
Encoding: 162 162 87
GlifName: cent
Width: 650
Flags: W
HStem: -39 214<291.735 420.922> 486 210<291.735 420.922>
VStem: 25 124<269.896 402.757> 288 136<-39 61 599.871 696>
LayerCount: 2
Fore
SplineSet
288 696 m 1
 424 696 l 1
 424 602 l 1
 504 593 582 566 625 513 c 1
 625 391 l 1
 569 460 441 486 355 486 c 0
 271 486 149 438 149 337 c 0
 149 236 271 175 355 175 c 0
 441 175 569 201 625 270 c 1
 625 148 l 1
 582 95 504 68 424 59 c 1
 424 -39 l 1
 288 -39 l 1
 288 61 l 1
 146 86 25 188 25 337 c 0
 25 486 146 578 288 601 c 1
 288 696 l 1
EndSplineSet
Validated: 1
EndChar

StartChar: sterling
Encoding: 163 163 88
GlifName: sterling
Width: 599
Flags: W
HStem: 0 127<251 574> 0 117<25 115> 290 117<55 115 251 414> 541 133<287.576 455.727>
VStem: 115 136<127 290 407 507.722>
LayerCount: 2
Fore
SplineSet
25 0 m 1x78
 25 117 l 1
 115 117 l 1x78
 115 290 l 1
 55 290 l 1
 55 407 l 1
 115 407 l 1
 115 491 l 2
 115 580 194 674 333 674 c 0
 415 674 487 644 530 617 c 1
 530 485 l 1
 481 516 429 541 368 541 c 0
 299 541 251 508 251 458 c 2
 251 407 l 1
 414 407 l 1
 414 290 l 1
 251 290 l 1
 251 127 l 1
 574 127 l 1
 574 0 l 1xb8
 25 0 l 1x78
EndSplineSet
Validated: 1
EndChar

StartChar: yen
Encoding: 165 165 89
GlifName: yen
Width: 741
Flags: W
HStem: 0 21G<312 440> 73 107<136 312 440 605> 233 107<136 284 466 605> 646 20G<25 209.603 536.429 716>
VStem: 312 128<0 73 180 233>
LayerCount: 2
Fore
SplineSet
136 73 m 1
 136 180 l 1
 312 180 l 1
 312 233 l 1
 136 233 l 1
 136 340 l 1
 284 340 l 1
 25 666 l 1
 195 666 l 1
 379 414 l 1
 550 666 l 1
 716 666 l 1
 466 340 l 1
 605 340 l 1
 605 233 l 1
 440 233 l 1
 440 180 l 1
 605 180 l 1
 605 73 l 1
 440 73 l 1
 440 0 l 1
 312 0 l 1
 312 73 l 1
 136 73 l 1
EndSplineSet
Validated: 1
EndChar

StartChar: two
Encoding: 50 50 90
GlifName: two
Width: 654
Flags: W
HStem: 0 129<141 629> 146 110<141 369.1> 555 126<169.431 408.766>
VStem: 495 134<336.723 476.161>
LayerCount: 2
Fore
SplineSet
25 256 m 1
 151 256 l 2
 342 256 495 284 495 403 c 0
 495 500 411 555 307 555 c 4
 193 555 101 513 25 459 c 1
 25 589 l 1
 94 642 172 681 316 681 c 4
 489 681 629 589 629 412 c 0
 629 187 424 150 141 146 c 1
 141 129 l 1
 629 129 l 1
 629 0 l 1
 25 0 l 1
 25 256 l 1
EndSplineSet
Validated: 1
EndChar

StartChar: five
Encoding: 53 53 91
GlifName: five
Width: 654
Flags: W
HStem: -7 126<160.348 438.945> 330 120<141 379.585> 537 129<141 599>
VStem: 25 116<450 537> 495 134<164.323 261.321>
LayerCount: 2
Fore
SplineSet
25 330 m 5
 25 666 l 5
 599 666 l 5
 599 537 l 5
 141 537 l 5
 141 450 l 5
 424 446 629 419 629 204 c 4
 629 27 489 -7 316 -7 c 4
 172 -7 94 24 25 77 c 5
 25 207 l 5
 101 153 193 119 307 119 c 4
 411 119 495 146 495 213 c 4
 495 302 342 330 151 330 c 6
 25 330 l 5
EndSplineSet
Validated: 1
EndChar

StartChar: seven
Encoding: 55 55 92
GlifName: seven
Width: 667
Flags: W
HStem: 0 21G<164 331.86> 540 126<25 493>
LayerCount: 2
Fore
SplineSet
642 666 m 1
 642 543 l 1
 320 0 l 1
 164 0 l 1
 493 540 l 1
 25 540 l 1
 25 666 l 1
 642 666 l 1
EndSplineSet
Validated: 1
EndChar

StartChar: six
Encoding: 54 54 93
GlifName: six
Width: 654
Flags: W
HStem: -14 120<213.707 438.753> 340 107<248.613 430.227> 646 20G<231.571 393>
VStem: 25 134<150.282 280.337> 495 134<154.266 282.469>
LayerCount: 2
Fore
SplineSet
335 340 m 0
 241 340 159 301 159 211 c 0
 159 129 240 106 330 106 c 0
 421 106 495 137 495 216 c 0
 495 303 419 340 335 340 c 0
327 447 m 0
 488 447 629 368 629 205 c 0
 629 65 480 -14 329 -14 c 0
 159 -14 25 57 25 220 c 0
 25 263 32 300 51 330 c 5
 243 666 l 1
 393 666 l 1
 247 435 l 1
 277 444 310 447 327 447 c 0
EndSplineSet
Validated: 1
EndChar

StartChar: three
Encoding: 51 51 94
GlifName: three
Width: 654
Flags: W
HStem: -11 126<160.348 441.785> 296 100<207 453.662> 556 126<167.651 443.023>
VStem: 485 134<424.711 521.252> 495 134<160.162 266.725>
LayerCount: 2
Fore
SplineSet
207 296 m 5xe8
 207 396 l 5
 371 396 l 6
 432 396 485 419 485 478 c 4
 485 535 411 556 297 556 c 4
 183 556 101 513 25 459 c 5
 25 589 l 5
 94 642 162 682 306 682 c 4
 499 682 619 614 619 487 c 4xf0
 619 426 575 371 530 350 c 5
 580 331 629 277 629 210 c 4
 629 53 509 -11 316 -11 c 4
 172 -11 94 20 25 73 c 5
 25 203 l 5
 101 149 193 115 307 115 c 4
 431 115 495 142 495 219 c 4
 495 278 432 296 371 296 c 6
 207 296 l 5xe8
EndSplineSet
Validated: 1
EndChar

StartChar: four
Encoding: 52 52 95
GlifName: four
Width: 645
Flags: W
HStem: 0 21G<374 510> 181 123<170 374 510 620> 646 20G<354.557 510>
VStem: 374 136<0 181 304 501>
LayerCount: 2
Fore
SplineSet
374 304 m 1
 374 501 l 1
 170 304 l 1
 374 304 l 1
374 666 m 1
 510 666 l 1
 510 304 l 1
 620 304 l 1
 620 181 l 1
 510 181 l 1
 510 0 l 1
 374 0 l 1
 374 181 l 1
 25 181 l 1
 25 223 25 265 25 307 c 1
 374 666 l 1
EndSplineSet
Validated: 1
EndChar

StartChar: nine
Encoding: 57 57 96
GlifName: nine
Width: 654
Flags: W
HStem: 0 21G<261 422.19> 219 107<223.773 405.387> 560 120<215.247 440.293>
VStem: 25 134<383.531 511.734> 495 134<385.663 515.718>
LayerCount: 2
Fore
SplineSet
319 326 m 0
 413 326 495 365 495 455 c 0
 495 537 414 560 324 560 c 0
 233 560 159 529 159 450 c 0
 159 363 235 326 319 326 c 0
327 219 m 0
 166 219 25 298 25 461 c 0
 25 601 174 680 325 680 c 0
 495 680 629 609 629 446 c 0
 629 403 618 366 599 336 c 1
 411 0 l 1
 261 0 l 1
 407 231 l 1
 377 222 344 219 327 219 c 0
EndSplineSet
Validated: 1
EndChar

StartChar: ampersand
Encoding: 38 38 97
GlifName: ampersand
Width: 726
Flags: W
HStem: -11 126<198.212 415.773> 0 21G<504 623> 296 100<200.338 504 623 701> 559 123<197.724 381.982>
VStem: 25 134<150.707 260.651> 35 134<424.711 530.352> 504 119<0 96 181.629 296 396 502>
LayerCount: 2
Fore
SplineSet
623 296 m 1xb6
 623 0 l 1
 504 0 l 1x76
 504 96 l 1
 456 15 392 -11 302 -11 c 0
 149 -11 25 63 25 200 c 0xba
 25 287 74 331 124 350 c 1
 79 371 35 426 35 487 c 0
 35 604 130 682 253 682 c 0
 357 682 415 652 464 609 c 1
 464 489 l 1
 408 533 346 559 282 559 c 0
 218 559 169 535 169 478 c 0
 169 419 222 396 283 396 c 2
 504 396 l 1
 504 502 l 1
 623 502 l 1
 623 396 l 1
 701 396 l 1
 701 296 l 1
 623 296 l 1xb6
504 296 m 1
 283 296 l 2
 222 296 159 268 159 209 c 0
 159 142 207 115 311 115 c 0xba
 385 115 470 138 504 218 c 1
 504 296 l 1
EndSplineSet
Validated: 1
EndChar

StartChar: exclamdown
Encoding: 161 161 98
GlifName: exclamdown
Width: 206
Flags: W
HStem: 389 135<45.1149 160.885>
VStem: 25 156<408.625 503.875> 34 136<-156 178.6> 44 116<-12.6 322>
LayerCount: 2
Fore
SplineSet
181 456 m 0xc0
 181 419 150 389 103 389 c 0
 56 389 25 419 25 456 c 0
 25 493 56 524 103 524 c 0
 150 524 181 493 181 456 c 0xc0
170 -156 m 1xa0
 34 -156 l 1xa0
 44 322 l 1
 160 322 l 1x90
 170 -156 l 1xa0
EndSplineSet
Validated: 1
EndChar

StartChar: questiondown
Encoding: 191 191 99
GlifName: questiondown
Width: 604
Flags: W
HStem: -162 126<216.718 450.992> 137 186<268 384> 137 120<188.843 264> 390 135<268.115 383.885>
VStem: 25 134<10.5451 111.329> 248 156<409.625 504.875> 268 116<257 323>
LayerCount: 2
Fore
SplineSet
404 457 m 4x9c
 404 420 373 390 326 390 c 4
 279 390 248 420 248 457 c 4
 248 494 279 525 326 525 c 4
 373 525 404 494 404 457 c 4x9c
394 137 m 5xba
 258 137 l 6
 207 137 159 117 159 58 c 4
 159 1 233 -36 317 -36 c 4
 421 -36 503 -2 579 52 c 5
 579 -78 l 5
 510 -131 442 -162 308 -162 c 4
 155 -162 25 -88 25 49 c 4
 25 194 121 253 264 257 c 5xba
 268 323 l 5
 384 323 l 5xda
 394 137 l 5xba
EndSplineSet
Validated: 1
EndChar

StartChar: brokenbar
Encoding: 166 166 100
GlifName: brokenbar
Width: 186
Flags: W
VStem: 25 136<-200 261 340 801>
LayerCount: 2
Fore
SplineSet
25 261 m 1
 161 261 l 1
 161 -200 l 1
 25 -200 l 1
 25 261 l 1
25 801 m 1
 161 801 l 1
 161 340 l 1
 25 340 l 1
 25 801 l 1
EndSplineSet
Validated: 1
EndChar

StartChar: dieresis
Encoding: 168 168 101
GlifName: dieresis
Width: 381
Flags: W
HStem: 666 135<45.1149 160.885 220.115 335.885>
VStem: 25 156<686.125 781.375> 200 156<686.125 781.375>
LayerCount: 2
Fore
SplineSet
200 734 m 4
 200 771 231 801 278 801 c 4
 325 801 356 771 356 734 c 4
 356 697 325 666 278 666 c 4
 231 666 200 697 200 734 c 4
25 734 m 4
 25 771 56 801 103 801 c 4
 150 801 181 771 181 734 c 4
 181 697 150 666 103 666 c 4
 56 666 25 697 25 734 c 4
EndSplineSet
Validated: 1
EndChar

StartChar: copyright
Encoding: 169 169 102
GlifName: copyright
Width: 654
Flags: W
HStem: 196 56<219.622 442.059> 354 231<251.668 425.208> 687 57<212.443 438.125>
VStem: 25 52<386.646 562.464> 534 95<370.179 440 495 569.254>
LayerCount: 2
Fore
SplineSet
77 472 m 0
 77 371 170 252 325 252 c 0
 423 252 489 280 534 337 c 1
 534 440 l 1
 491 387 414 354 337 354 c 0
 239 354 184 422 184 472 c 0
 184 540 239 585 331 585 c 0
 395 585 490 541 534 495 c 1
 534 598 l 1
 489 658 405 687 325 687 c 0
 170 687 77 589 77 472 c 0
329 744 m 0
 490 744 629 626 629 463 c 0
 629 313 482 196 331 196 c 0
 161 196 25 305 25 478 c 0
 25 634 172 744 329 744 c 0
EndSplineSet
Validated: 1
EndChar

StartChar: gravecomb
Encoding: 256 768 103
GlifName: gravecomb
Width: 286
Flags: W
HStem: 607 193
VStem: 0 286
AnchorPoint: "Top AccentedMark" 217 607 mark 0
LayerCount: 2
Fore
SplineSet
0 800 m 1
 136 800 l 1
 286 607 l 1
 150 607 l 1
 0 800 l 1
EndSplineSet
Validated: 1
EndChar

StartChar: acutecomb
Encoding: 257 769 104
GlifName: acutecomb
Width: 286
Flags: W
HStem: 607 193
VStem: 0 286
AnchorPoint: "Top AccentedMark" 67 607 mark 0
LayerCount: 2
Fore
SplineSet
150 800 m 1
 286 800 l 1
 136 607 l 1
 0 607 l 1
 150 800 l 1
EndSplineSet
Validated: 1
EndChar

StartChar: uni0302
Encoding: 258 770 105
GlifName: uni0302
Width: 436
Flags: W
HStem: 607 193
AnchorPoint: "Top AccentedMark" 217 607 mark 0
LayerCount: 2
Fore
SplineSet
218 723 m 1
 136 607 l 1
 0 607 l 1
 150 800 l 1
 286 800 l 1
 436 607 l 1
 300 607 l 1
 218 723 l 1
EndSplineSet
Validated: 1
EndChar

StartChar: tildecomb
Encoding: 259 771 106
GlifName: tildecomb
Width: 498
Flags: W
HStem: 597 106<274.982 432.509> 667 104<64.803 211.61>
AnchorPoint: "Top AccentedMark" 247 607 mark 0
LayerCount: 2
Fore
SplineSet
338 597 m 0x80
 241 597 228 667 131 667 c 0
 60 667 0 587 0 587 c 1
 0 710 l 1
 0 710 46 771 150 771 c 0x40
 246 771 261 703 357 703 c 0x80
 428 703 498 771 498 771 c 1x40
 498 651 l 1
 498 651 430 597 338 597 c 0x80
EndSplineSet
Validated: 1
EndChar

StartChar: uni0308
Encoding: 261 776 107
GlifName: uni0308
Width: 346
Flags: W
HStem: 608 135<20.1149 135.885 210.115 325.885>
VStem: 0 156<628.125 723.375> 190 156<628.125 723.375>
AnchorPoint: "Top AccentedMark" 176 607 mark 0
LayerCount: 2
Fore
SplineSet
190 676 m 0
 190 713 221 743 268 743 c 0
 315 743 346 713 346 676 c 0
 346 639 315 608 268 608 c 0
 221 608 190 639 190 676 c 0
0 676 m 4
 0 713 31 743 78 743 c 0
 125 743 156 713 156 676 c 0
 156 639 125 608 78 608 c 0
 31 608 0 639 0 676 c 4
EndSplineSet
Validated: 1
EndChar

StartChar: uni030A
Encoding: 262 778 108
GlifName: uni030A_
Width: 230
Flags: W
HStem: 626 65<78.0102 151.99> 762 63<77.8278 152.172>
VStem: 0 74<695.911 757.8> 156 74<695.911 757.8>
AnchorPoint: "Top AccentedMark" 115 607 mark 0
LayerCount: 2
Fore
SplineSet
74 727 m 0
 74 708 90 691 115 691 c 0
 140 691 156 708 156 727 c 0
 156 746 140 762 115 762 c 0
 90 762 74 746 74 727 c 0
0 726 m 0
 0 780 46 825 115 825 c 0
 184 825 230 780 230 726 c 0
 230 672 184 626 115 626 c 0
 46 626 0 672 0 726 c 0
EndSplineSet
Validated: 1
EndChar

StartChar: dotlessi
Encoding: 263 305 156
GlifName: dotlessi
Width: 136
Flags: W
HStem: 0 21G<0 136> 497 20G<0 136>
VStem: 0 136<0 517>
AnchorPoint: "Top AccentedMark" 69 607 basechar 0
LayerCount: 2
Fore
SplineSet
0 517 m 1
 136 517 l 1
 136 0 l 1
 0 0 l 1
 0 517 l 1
EndSplineSet
Validated: 1
EndChar

StartChar: Eth
Encoding: 208 208 161
GlifName: E_th
Width: 754
Flags: W
HStem: 0 127<246 516.141> 270 127<25 110 246 474> 539 127<246 498.726>
VStem: 110 136<127 270 397 539> 609 120<223.985 428.695>
LayerCount: 2
Fore
SplineSet
404 539 m 2
 246 539 l 1
 246 397 l 1
 474 397 l 1
 474 270 l 1
 246 270 l 1
 246 127 l 1
 418 126 l 1
 523 126 609 180 609 334 c 0
 609 455 521 539 404 539 c 2
110 397 m 1
 110 666 l 1
 404 666 l 2
 541 666 729 572 729 335 c 0
 729 101 605 -1 418 -1 c 2
 110 0 l 1
 110 270 l 1
 25 270 l 1
 25 397 l 1
 110 397 l 1
EndSplineSet
Validated: 1
EndChar

StartChar: uni0327
Encoding: 264 807 163
GlifName: uni0327
Width: 165
Flags: W
HStem: -200 76<0 72.7034> -82 78<0 75.9875>
VStem: 0 80<-32 -4> 76 89<-119.432 -86.2678>
AnchorPoint: "Bottom AccentedMark" 41 -28 mark 0
LayerCount: 2
Fore
SplineSet
0 -4 m 1xe0
 80 -4 l 1
 80 -32 l 1xe0
 109 -32 165 -48 165 -110 c 1xd0
 165 -173 131 -200 0 -200 c 1
 0 -124 l 1xe0
 63 -124 76 -116 76 -103 c 1xd0
 76 -90 59 -82 0 -82 c 1
 0 -4 l 1xe0
EndSplineSet
Validated: 1
EndChar

StartChar: AE
Encoding: 198 198 165
GlifName: A_E_
Width: 1058
Flags: W
HStem: 0 127<620 1033> 129 107<326 484> 287 127<620 971> 539 127<620 1033>
VStem: 484 136<127 129 236 287 414 469>
LayerCount: 2
Fore
SplineSet
1033 127 m 1
 1033 0 l 1
 484 0 l 1
 484 129 l 1
 258 129 l 1
 167 0 l 1
 25 0 l 1
 484 666 l 1
 1033 666 l 1
 1033 539 l 1
 620 539 l 1
 620 414 l 1
 971 414 l 1
 971 287 l 1
 620 287 l 1
 620 127 l 1
 1033 127 l 1
484 236 m 1
 484 469 l 5
 326 236 l 1
 484 236 l 1
EndSplineSet
Validated: 1
EndChar

StartChar: ae
Encoding: 230 230 166
GlifName: ae
Width: 1113
Flags: W
HStem: -21 116<184.482 419.02> -16 120<703.967 963.584> 221 108<201.412 498 620 953> 411 121<693.947 883.915> 424 113<198.96 447.849>
VStem: 25 134<120.748 187.526>
LayerCount: 2
Fore
SplineSet
498 220 m 1xa4
 345 220 l 0
 230 220 159 195 159 154 c 0
 159 113 220 95 310 95 c 0
 393 96 463 126 501 171 c 1
 498 220 l 1xa4
47 459 m 1
 141 511 201 537 331 537 c 0xac
 441 537 523 513 575 455 c 1
 632 503 709 532 789 532 c 0
 952 532 1088 396 1088 221 c 1
 613 221 l 1
 623 139 735 104 819 104 c 0
 905 104 1029 130 1085 199 c 1
 1085 77 l 1
 1030 10 918 -16 818 -16 c 0x74
 708 -16 622 29 560 108 c 1
 495 33 427 -21 291 -21 c 0
 121 -21 25 27 25 156 c 0
 25 292 207 334 340 334 c 0
 501 330 l 0
 501 386 438 423 338 424 c 1xac
 221 420 143 389 47 335 c 1
 47 459 l 1
620 329 m 1
 953 329 l 1
 934 369 864 411 790 411 c 0x34
 710 411 639 366 620 329 c 1
EndSplineSet
Validated: 1
EndChar

StartChar: Oslash
Encoding: 216 216 167
GlifName: O_slash
Width: 744
Flags: W
HStem: -14 120<327.979 462.726> 555 126<275.728 394.479>
VStem: 25 134<221.873 437.554> 585 134<234.796 434.317>
LayerCount: 2
Fore
SplineSet
495 774 m 1
 631 774 l 1
 562 623 l 1
 656 561 719 455 719 326 c 0
 719 127 551 -14 369 -14 c 0
 336 -14 305 -10 276 -4 c 1
 230 -104 l 1
 94 -104 l 1
 161 43 l 1
 74 102 25 205 25 341 c 0
 25 539 167 681 367 681 c 0
 395 681 422 678 448 672 c 1
 495 774 l 1
375 555 m 0
 238 555 159 464 159 332 c 0
 159 260 180 203 217 164 c 1
 395 554 l 1
 389 555 382 555 375 555 c 0
509 507 m 1
 327 109 l 1
 341 107 355 106 370 106 c 0
 492 106 585 199 585 337 c 0
 585 409 555 468 509 507 c 1
EndSplineSet
Validated: 1
EndChar

StartChar: oslash
Encoding: 248 248 168
GlifName: oslash
Width: 654
Flags: W
HStem: -14 120<325.627 413.569> 408 126<242.965 348.662>
VStem: 25 134<184.394 330.566> 495 134<185.003 338.841>
LayerCount: 2
Fore
SplineSet
449 596 m 1
 585 596 l 1
 519 472 l 1
 586 422 629 344 629 253 c 0
 629 103 482 -14 331 -14 c 0
 308 -14 286 -12 264 -8 c 1
 231 -70 l 1
 95 -70 l 1
 151 35 l 1
 74 83 25 164 25 268 c 0
 25 424 172 534 329 534 c 0
 357 534 385 531 411 524 c 1
 449 596 l 1
337 408 m 0
 243 408 159 349 159 259 c 0
 159 213 179 175 211 148 c 1
 349 408 l 1
 345 408 341 408 337 408 c 0
459 358 m 1
 325 106 l 1
 327 106 330 106 332 106 c 0
 423 106 495 175 495 264 c 0
 495 302 482 334 459 358 c 1
EndSplineSet
Validated: 1
EndChar

StartChar: Thorn
Encoding: 222 222 169
GlifName: T_horn
Width: 669
Flags: W
HStem: 0 21G<25 161> 143 127<161 487.812> 430 127<161 492.312> 646 20G<25 161>
VStem: 25 136<0 143 270 430 557 666> 524 120<300.166 401.023>
LayerCount: 2
Fore
SplineSet
25 666 m 1
 161 666 l 1
 161 557 l 1
 363 558 l 2
 550 558 644 502 644 347 c 0
 644 173 534 143 369 143 c 2
 161 143 l 1
 161 0 l 1
 25 0 l 1
 25 666 l 1
161 430 m 1
 161 270 l 1
 369 270 l 2
 486 270 524 298 524 349 c 0
 524 413 468 431 363 431 c 2
 161 430 l 1
EndSplineSet
Validated: 1
EndChar

StartChar: thorn
Encoding: 254 254 170
GlifName: thorn
Width: 640
Flags: W
HStem: -9 123<274.509 423.497> 403 123<274.509 420.741> 716 20G<25 161>
VStem: 25 136<-218 85 177.355 339.645 432 736> 479 136<171.253 343.951>
LayerCount: 2
Fore
SplineSet
25 -218 m 1
 25 736 l 5
 161 736 l 5
 161 432 l 1
 226 491 305 526 385 526 c 0
 506 526 615 424 615 257 c 0
 615 92 506 -9 385 -9 c 0
 305 -9 226 26 161 85 c 1
 161 -218 l 1
 25 -218 l 1
161 197 m 1
 217 141 274 114 339 114 c 0
 429 114 479 165 479 257 c 0
 479 350 429 403 339 403 c 0
 274 403 217 376 161 320 c 1
 161 197 l 1
EndSplineSet
Validated: 1
EndChar
